<svg xmlns="http://www.w3.org/2000/svg" width="41" height="40" viewBox="0 0 41 40" fill="none">
    <path fill-rule="evenodd" clip-rule="evenodd" d="M8.14249 4.00508C7.78729 4.00431 7.44489 4.04452 7.11951 4.12095C6.67348 3.13787 6.08431 2.25589 5.41421 1.58579C4.27687 0.448441 2.4831 0 0 0V4C1.5169 4 2.3898 4.21823 2.58579 4.41421C3.34173 5.17015 4 6.70612 4 8L4.0201 8.28284L5.97984 22.001C2.70071 22.1711 0.160395 24.7176 0.00245716 27.9009L0 30C0.193642 33.2879 2.72551 35.8171 5.88648 35.9968L6.34052 35.9975C7.16347 38.3292 9.38662 40 12 40C14.6124 40 16.8349 38.3304 17.6586 36H22.3414C23.1651 38.3304 25.3876 40 28 40C31.3137 40 34 37.3137 34 34C34 30.6863 31.3137 28 28 28C25.3876 28 23.1651 29.6696 22.3414 32H17.6586C16.8349 29.6696 14.6124 28 12 28C9.38756 28 7.16508 29.6696 6.34141 32H6C4.98002 31.9388 4.06507 31.0248 3.99641 29.8802L4 28C4.05393 26.9626 4.96262 26.0539 6.09911 25.9975L10.0474 25.9985L10.076 26H30.2337L30.5289 25.9063C32.0453 25.4251 33.2593 24.2833 33.834 22.805L34.0447 22.388L34.2993 21.8838L34.7293 21.0317C35.4375 19.6278 36.1458 18.2215 36.836 16.8476C38.5264 13.4821 39.5896 11.3433 39.825 10.8181C41.0341 8.1209 38.5848 6.04493 36.0814 6.00072L8.14249 4.00508ZM29.5389 22H10.2257C10.0973 21.9643 9.99946 21.8556 9.9803 21.7201L8.02051 8.00151L35.7867 9.98989C35.3009 10.9807 34.4178 12.7504 33.2615 15.0522L33.2326 15.1099C32.5726 16.4238 31.8653 17.8281 31.158 19.2302L30.7285 20.0813L30.4743 20.5847L30.2151 21.0977L30.1175 21.3245C30.0131 21.6155 29.8057 21.8547 29.5389 22ZM28 36C29.1046 36 30 35.1046 30 34C30 32.8954 29.1046 32 28 32C26.8954 32 26 32.8954 26 34C26 35.1046 26.8954 36 28 36ZM14 34C14 35.1046 13.1046 36 12 36C10.8954 36 10 35.1046 10 34C10 32.8954 10.8954 32 12 32C13.1046 32 14 32.8954 14 34Z" fill="#009640"></path>
</svg>