<svg width="500" height="213" viewBox="0 0 500 213" fill="none" xmlns="http://www.w3.org/2000/svg">
    <g clip-path="url(#clip0)">
        <path d="M0 105.596V212.44H394.404C422.408 212.44 449.265 201.316 469.068 181.515C488.871 161.715 499.997 134.859 500 106.855V0H105.596C77.5909 0.00290371 50.7339 11.1291 30.9315 30.9315C11.1291 50.7339 0.00290371 77.5909 0 105.596H0Z" fill="white"/>
        <path d="M117.061 184.943C115.692 184.943 115.112 184.505 114.871 183.574L113.557 179.588H103.055L101.456 184.987H93.583C92.4113 184.987 91.7762 184.308 92.1156 183.279L103.449 151.883C105.463 151.032 107.625 150.586 109.812 150.569C112.1 150.569 112.922 151.15 113.611 153.099L125.131 184.943H117.061ZM105.201 172.449H111.421L108.311 162.286L105.201 172.449Z" fill="#009640"/>
        <path d="M125.734 149.847C127.884 149.327 130.092 149.081 132.304 149.113C133.859 149.113 134.68 149.792 134.68 151.062V174.88C134.68 177.311 135.611 178.285 137.308 178.285C138.272 178.29 139.228 178.108 140.123 177.749C140.839 178.899 141.218 180.226 141.218 181.581C141.218 183.191 138.403 185.283 134.319 185.283C129.019 185.283 125.712 181.778 125.712 175.022L125.734 149.847Z" fill="#009640"/>
        <path d="M144.601 166.229C143.98 165.289 143.642 164.19 143.627 163.064C143.627 161.027 148.489 158.399 154.128 158.399C161.608 158.399 165.451 162.046 165.451 169.043V176.577C165.451 177.891 165.988 178.471 166.908 178.471H168.222C168.537 179.414 168.703 180.401 168.714 181.395C168.714 183.235 166.524 185.283 163.239 185.283C162.093 185.296 160.964 185.006 159.966 184.443C158.968 183.879 158.137 183.062 157.556 182.074C156.816 183.186 155.801 184.088 154.609 184.692C153.418 185.297 152.09 185.583 150.756 185.523C145.28 185.523 141.656 181.778 141.656 176.971C141.656 171.813 145.74 168.66 151.621 168.66C153.245 168.595 154.865 168.859 156.384 169.437V168.025C156.384 166.032 155.125 164.619 151.533 164.619C149.132 164.636 146.764 165.186 144.601 166.229ZM154.457 151.993C155.957 151.993 156.592 150.975 156.647 148.051H160.589C161.75 148.051 161.991 148.445 161.947 149.223C161.553 153.887 158.739 156.461 154.358 156.461C150.569 156.461 147.416 154.523 146.693 149.266C147.859 148.471 149.225 148.019 150.635 147.963C151.555 147.963 152.037 148.204 152.19 149.124C152.519 151.117 153.307 151.982 154.468 151.982L154.457 151.993ZM156.494 176.588V173.916C155.643 173.675 154.761 173.561 153.876 173.576C153.45 173.535 153.019 173.586 152.614 173.726C152.209 173.865 151.838 174.089 151.527 174.384C151.215 174.679 150.971 175.037 150.809 175.434C150.648 175.831 150.574 176.258 150.591 176.686C150.567 177.029 150.614 177.374 150.731 177.697C150.848 178.021 151.032 178.316 151.271 178.564C151.509 178.812 151.797 179.007 152.116 179.136C152.435 179.265 152.777 179.326 153.121 179.314C153.913 179.312 154.68 179.04 155.295 178.542C155.911 178.044 156.337 177.351 156.505 176.577L156.494 176.588Z" fill="#009640"/>
        <path d="M171.923 158.979V151.927C174.075 151.417 176.282 151.174 178.493 151.205C180.048 151.205 180.88 151.883 180.88 153.143V158.979H186.805C187.779 158.979 188.316 159.56 188.316 160.83V165.791H180.88V175.318C180.88 177.749 181.756 178.712 183.99 178.712C185.108 178.728 186.219 178.551 187.276 178.187C187.951 179.153 188.331 180.294 188.371 181.472C188.371 183.224 185.447 185.512 180.979 185.512C175.339 185.512 171.89 182.008 171.89 175.252V165.791H169.404C168.244 165.791 167.608 165.112 167.608 163.743C167.597 162.139 167.777 160.54 168.145 158.979H171.923Z" fill="#009640"/>
        <path d="M215.353 173.763C215.353 181.056 210.25 185.48 202.957 185.48C195.664 185.48 190.561 181.099 190.561 173.763V159.374C192.711 158.853 194.919 158.607 197.131 158.64C198.697 158.64 199.518 159.319 199.518 160.589V174.047C199.518 176.719 200.734 178.329 202.968 178.329C205.201 178.329 206.417 176.719 206.417 174.047V158.979H213.535C214.794 158.979 215.374 159.516 215.374 160.491L215.353 173.763Z" fill="#009640"/>
        <path d="M219.24 159.374C221.39 158.853 223.598 158.606 225.81 158.64C227.365 158.64 228.187 159.319 228.187 160.589V162.484C228.899 161.233 229.933 160.196 231.18 159.478C232.427 158.76 233.843 158.387 235.283 158.399C238.064 158.399 240.057 159.56 240.057 161.071C240.057 162.922 238.25 164.915 236.257 166.13C235.311 165.493 234.189 165.168 233.049 165.199C230.519 165.199 228.778 167.006 228.187 169.963V184.943H221.091C219.831 184.943 219.251 184.406 219.251 183.432L219.24 159.374Z" fill="#009640"/>
        <path d="M240.977 152.212C240.977 149.54 242.97 148.127 245.696 148.127C248.171 148.127 250.504 149.639 250.504 152.354C250.504 155.07 248.511 156.439 245.784 156.439C243.309 156.45 240.977 154.95 240.977 152.212ZM250.208 176.566C250.208 177.88 250.745 178.46 251.675 178.46H252.957C253.272 179.403 253.438 180.39 253.449 181.384C253.449 183.224 251.259 185.272 247.974 185.272C244.47 185.272 241.218 183.224 241.218 178.121V159.374C243.368 158.853 245.576 158.606 247.788 158.64C249.343 158.64 250.164 159.319 250.164 160.589L250.208 176.566Z" fill="#009640"/>
        <path d="M269.382 165.791C268.211 165.791 267.587 165.112 267.587 163.743C267.57 162.139 267.75 160.539 268.123 158.979H284.713C285.283 158.901 285.863 158.999 286.375 159.259C286.888 159.52 287.309 159.93 287.582 160.436C288.209 161.571 288.639 162.804 288.852 164.082L278.833 177.891H287.593C288.557 177.891 289.093 178.471 289.093 179.742V184.943H271.211C270.64 185.02 270.06 184.921 269.547 184.659C269.034 184.396 268.614 183.984 268.342 183.476C267.717 182.345 267.291 181.115 267.083 179.84L277.289 165.791H269.382Z" fill="#009640"/>
        <path d="M291.371 152.212C291.371 149.54 293.364 148.127 296.08 148.127C298.565 148.127 300.898 149.639 300.898 152.354C300.898 155.07 298.905 156.439 296.178 156.439C293.703 156.45 291.371 154.95 291.371 152.212ZM300.602 176.566C300.602 177.88 301.139 178.46 302.059 178.46H303.329C303.644 179.403 303.81 180.39 303.822 181.384C303.822 183.224 301.632 185.272 298.346 185.272C294.853 185.272 291.59 183.224 291.59 178.121V159.374C293.741 158.854 295.948 158.608 298.16 158.64C299.715 158.64 300.537 159.319 300.537 160.589L300.602 176.566Z" fill="#009640"/>
        <path d="M342.313 149.452C343.572 149.452 344.163 149.989 344.163 150.964V176.577C344.163 177.891 344.7 178.471 345.62 178.471H346.934C347.24 179.416 347.403 180.402 347.416 181.395C347.416 183.235 345.226 185.282 341.94 185.282C340.608 185.294 339.304 184.899 338.201 184.152C337.098 183.405 336.248 182.341 335.764 181.099C334.989 182.443 333.871 183.556 332.524 184.326C331.177 185.095 329.65 185.494 328.099 185.48C322.065 185.48 317.455 180.618 317.455 173.04C317.455 163.754 323.281 158.355 329.358 158.355C330.437 158.304 331.515 158.481 332.521 158.876C333.527 159.27 334.438 159.873 335.195 160.644V149.452H342.313ZM335.217 166.316C334.324 165.56 333.178 165.169 332.008 165.221C328.723 165.221 326.413 168.43 326.413 172.887C326.413 176.774 327.825 178.712 330.596 178.712C332.49 178.712 334.297 177.354 335.217 175.022V166.316Z" fill="#009640"/>
        <path d="M347.722 172.054C347.66 170.245 347.97 168.442 348.633 166.758C349.297 165.074 350.299 163.544 351.579 162.263C352.858 160.983 354.387 159.979 356.071 159.314C357.755 158.649 359.557 158.338 361.367 158.399C368.561 158.399 372.887 162.582 372.887 168.364C372.889 169.892 372.513 171.397 371.791 172.744C371.014 174.157 369.897 174.595 367.608 174.595H356.822C357.501 177.606 359.932 179.161 363.338 179.161C365.39 179.217 367.425 178.766 369.262 177.847C369.926 178.869 370.329 180.039 370.434 181.253C370.434 182.753 366.93 185.48 361.246 185.48C359.461 185.545 357.681 185.243 356.018 184.593C354.354 183.942 352.841 182.957 351.574 181.699C350.306 180.44 349.31 178.935 348.648 177.276C347.985 175.617 347.67 173.84 347.722 172.054ZM356.724 169.722H364.104C364.384 169.15 364.52 168.518 364.498 167.882C364.541 167.473 364.495 167.059 364.364 166.669C364.233 166.279 364.019 165.922 363.738 165.622C363.456 165.322 363.114 165.085 362.733 164.929C362.352 164.773 361.942 164.701 361.531 164.717C358.804 164.717 357.063 166.667 356.724 169.733V169.722Z" fill="#009640"/>
        <path d="M389.63 165.791C388.458 165.791 387.834 165.112 387.834 163.743C387.817 162.139 387.997 160.539 388.371 158.979H404.939C405.508 158.901 406.088 158.999 406.601 159.259C407.113 159.52 407.534 159.93 407.808 160.436C408.439 161.568 408.869 162.802 409.078 164.082L399.058 177.891H407.819C408.782 177.891 409.319 178.471 409.319 179.742V184.943H391.426C390.855 185.018 390.275 184.919 389.763 184.656C389.25 184.394 388.83 183.983 388.557 183.476C387.932 182.345 387.506 181.115 387.297 179.84L397.503 165.791H389.63Z" fill="#009640"/>
        <path d="M411.586 152.212C411.586 149.54 413.579 148.127 416.294 148.127C418.78 148.127 421.113 149.639 421.113 152.354C421.113 155.07 419.12 156.439 416.393 156.439C413.929 156.45 411.586 154.95 411.586 152.212ZM420.817 176.566C420.817 177.88 421.353 178.46 422.273 178.46H423.587C423.903 179.403 424.069 180.39 424.08 181.384C424.08 183.224 421.89 185.272 418.605 185.272C415.112 185.272 411.848 183.224 411.848 178.121V159.374C413.999 158.854 416.207 158.608 418.419 158.64C419.974 158.64 420.795 159.319 420.795 160.589L420.817 176.566Z" fill="#009640"/>
        <path d="M126.544 60.8081H105.037V128.296H126.544V60.8081Z" fill="#E30613"/>
        <path d="M89.3014 111.213C87.5863 111.304 85.9027 110.727 84.6036 109.604C84.018 109.055 83.5581 108.387 83.2557 107.644C82.9532 106.901 82.8153 106.101 82.8515 105.3V26.9273L61.3228 32.0521V106.921C61.3228 113.907 63.4509 119.55 67.707 123.85C71.9631 128.15 77.5953 130.304 84.6036 130.311C88.8852 130.214 93.1098 129.307 97.0543 127.639V109.352C94.5768 110.354 91.9638 110.981 89.3014 111.213" fill="#E30613"/>
        <path d="M117.466 26.9273H117.4C115.73 26.8684 114.065 27.1627 112.516 27.7911C110.967 28.4195 109.568 29.3677 108.41 30.5738C106.184 32.9764 104.976 36.1474 105.037 39.4218V51.1279H118.879C123.625 51.1268 128.282 49.8403 132.356 47.4052C136.43 44.9701 139.769 41.4772 142.017 37.2974L147.602 26.9273H117.466Z" fill="#009640"/>
        <path d="M209.33 98.9159C209.33 85.3044 206.045 75.5913 199.682 68.8677C193.32 62.1441 186.597 58.7932 177.453 58.7932C168.944 58.7932 163.053 61.2571 157.578 66.1848V60.8081H136.071V128.285H157.6C157.6 128.285 157.6 93.7254 157.6 93.7473C157.6 84.5488 165.265 77.0696 173.018 77.0696C181.176 77.0696 188.184 84.5488 188.184 100.679C188.184 108.706 184.516 120.729 177.168 128.285H200.164C205.965 119.574 209.142 109.38 209.319 98.9159" fill="#E30613"/>
        <path d="M265.32 105.3C262.451 110.505 257.658 113.104 250.942 113.097C247.517 113.161 244.198 111.911 241.667 109.604C238.944 107.062 237.106 103.716 236.421 100.055H285.896V94.5795C285.713 83.8261 282.308 75.1789 275.679 68.6378C272.458 65.4148 268.617 62.8794 264.387 61.1853C260.158 59.4912 255.628 58.6737 251.073 58.7823C246.38 58.674 241.712 59.5101 237.348 61.2407C232.984 62.9713 229.012 65.5613 225.668 68.8568C218.769 75.5804 215.32 84.14 215.32 94.5357C215.32 104.931 218.769 113.513 225.668 120.28C228.997 123.555 232.949 126.13 237.29 127.853C241.631 129.576 246.273 130.412 250.942 130.311C258.137 130.491 265.238 128.651 271.441 125C275.154 122.717 278.332 119.662 280.76 116.042L265.32 105.3ZM242.324 79.0845C244.875 77.248 247.941 76.2631 251.084 76.2703C254.117 76.2122 257.084 77.1551 259.527 78.9531C262.078 80.9425 263.88 83.7369 264.641 86.8813H236.827C237.695 83.7271 239.63 80.9717 242.302 79.0845" fill="#E30613"/>
    </g>
    <defs>
        <clipPath id="clip0">
            <rect width="500" height="212.451" fill="white"/>
        </clipPath>
    </defs>
</svg>